{"title":"The Truth Commissioner (2016) x264 RB58.mp4","uid":15689921,"size":1003443143,"categoryP":"video","categoryS":"tv_shows","magnet":"?xt=urn:btih:6ce06f17ec9a5355d5be66e1f3c1ac7bb912abfb&amp;dn=The+Truth+Commissioner+%282016%29+x264+RB58.mp4&amp;tr=udp%3A%2F%2Ftracker.leechers-paradise.org%3A6969&amp;tr=udp%3A%2F%2Fzer0day.ch%3A1337&amp;tr=udp%3A%2F%2Fopen.demonii.com%3A1337&amp;tr=udp%3A%2F%2Ftracker.coppersurfer.tk%3A6969&amp;tr=udp%3A%2F%2Fexodus.desync.com%3A6969","seeders":8,"leechers":5,"uploader":"RedBaron58","files":1,"time":1472392592,"description":"The Truth Commissioner(2016) TVrip DSR x264 mp4\r\n \nhttp://www.imdb.com/title/tt4637240/\r\n\r\n\r\nPlease be patient My intial upload speed is limited.\r\nThank you for your kind comments and feedback on my other torrents, your feedback is welcome.\r\n\r\n\r\nAbout the Episode:\r\nIn the wake of the formation of Northern Ireland's power-sharing executive, British diplomat \r\nHenry Stanfield is appointed to head a South African-style Commission for Truth and \r\nReconciliation, with the aim of settling any lingering resentments over the thousands of \r\ndeaths that occurred on both sides during the Troubles. His primary concern becomes an \r\ninvestigation into the disappearance of a teenager 20 years previously. \r\nHowever, Stanfield soon finds there are people in power willing to go to any lengths \r\nto suppress the truth. Political thriller, based on David Park's novel of the same name. \r\nStarring Roger Allam\r\n\r\n\r\nI hope you enjoy.\r\n\r\n\r\nTechnical:\r\n\r\nGeneral\r\nComplete name                            : I:The Truth Commissioner (2016) x264 RB58.mp4\r\nFormat                                   : MPEG-4\r\nFormat profile                           : Base Media\r\nCodec ID                                 : isom\r\nFile size                                : 957 MiB\r\nDuration                                 : 1h 27mn\r\nOverall bit rate                         : 1 523 Kbps\r\nWriting application                      : Lavf54.63.104\r\n\r\nVideo\r\nID                                       : 1\r\nFormat                                   : AVC\r\nFormat/Info                              : Advanced Video Codec\r\nFormat profile                           :   \r\nFormat settings, CABAC                   : Yes\r\nFormat settings, ReFrames                : 4 frames\r\nCodec ID                                 : avc1\r\nCodec ID/Info                            : Advanced Video Coding\r\nDuration                                 : 1h 27mn\r\nBit rate                                 : 1 400 Kbps\r\nWidth                                    : 832 pixels\r\nHeight                                   : 468 pixels\r\nDisplay aspect ratio                     : 16:9\r\nFrame rate mode                          : Constant\r\nFrame rate                               : 25.000 fps\r\nColor space                              : YUV\r\nChroma subsampling                       : 4:2:0\r\nBit depth                                : 8 bits\r\nScan type                                : Progressive\r\nBits/(Pixel*Frame)                       : 0.144\r\nStream size                              : 880 MiB (92%)\r\nWriting library                          : x264 core 123 r2189 35cf912\r\nEncoding settings                        : cabac=1 / ref=3 / deblock=1:0:0\r\n\r\nAudio\r\nID                                       : 2\r\nFormat                                   : AAC\r\nFormat/Info                              : Advanced Audio Codec\r\nFormat profile                           : LC\r\nCodec ID                                 : 40\r\nDuration                                 : 1h 27mn\r\nBit rate mode                            : Constant\r\nBit rate                                 : 114 Kbps\r\nChannel(s)                               : 2 channels\r\nChannel positions                        : Front: L R\r\nSampling rate                            : 48.0 KHz\r\nCompression mode                         : Lossy\r\nStream size                              : 71.7 MiB (7%)","torrent":{"xt":"urn:btih:6ce06f17ec9a5355d5be66e1f3c1ac7bb912abfb","amp;dn":"The+Truth+Commissioner+%282016%29+x264+RB58.mp4","amp;tr":["udp%3A%2F%2Ftracker.leechers-paradise.org%3A6969","udp%3A%2F%2Fzer0day.ch%3A1337","udp%3A%2F%2Fopen.demonii.com%3A1337","udp%3A%2F%2Ftracker.coppersurfer.tk%3A6969","udp%3A%2F%2Fexodus.desync.com%3A6969"],"infoHash":"6ce06f17ec9a5355d5be66e1f3c1ac7bb912abfb","infoHashBuffer":{"type":"Buffer","data":[108,224,111,23,236,154,83,85,213,190,102,225,243,193,172,123,185,18,171,251]},"announce":[],"urlList":[]}}